<svg width="60" height="60" viewBox="0 0 60 60" fill="none" xmlns="http://www.w3.org/2000/svg">
<path d="M16.92 7.34478C21.5461 4.74711 23.8591 3.44828 26.3023 2.90382C28.7376 2.36113 31.2624 2.36113 33.6977 2.90382C36.1409 3.44828 38.4539 4.74711 43.08 7.34478C47.6427 10.0522 49.924 11.406 51.6171 13.2496C53.3047 15.0873 54.5672 17.2739 55.3148 19.6542C56.0649 22.0423 56.0966 24.6949 56.16 30C56.0966 35.3051 56.0649 37.9577 55.3148 40.3458C54.5672 42.7261 53.3047 44.9127 51.6171 46.7504C49.924 48.594 47.6427 49.9478 43.08 52.6552C38.4539 55.2529 36.1409 56.5517 33.6977 57.0962C31.2624 57.6389 28.7376 57.6389 26.3023 57.0962C23.8591 56.5517 21.5461 55.2529 16.92 52.6552C12.3573 49.9478 10.076 48.594 8.38287 46.7504C6.69525 44.9127 5.43282 42.7261 4.68517 40.3458C3.93509 37.9577 3.90339 35.3051 3.84 30C3.90339 24.6949 3.93509 22.0423 4.68517 19.6542C5.43282 17.2739 6.69525 15.0873 8.38287 13.2496C10.076 11.406 12.3573 10.0522 16.92 7.34478Z" fill="url(#paint0_linear_40_430)"/>
<mask id="mask0_40_430" style="mask-type:alpha" maskUnits="userSpaceOnUse" x="3" y="2" width="54" height="56">
<path d="M16.92 7.34478C21.5461 4.74711 23.8591 3.44828 26.3023 2.90382C28.7376 2.36113 31.2624 2.36113 33.6977 2.90382C36.1409 3.44828 38.4539 4.74711 43.08 7.34478C47.6427 10.0522 49.924 11.406 51.6171 13.2496C53.3047 15.0873 54.5672 17.2739 55.3148 19.6542C56.0649 22.0423 56.0966 24.6949 56.16 30C56.0966 35.3051 56.0649 37.9577 55.3148 40.3458C54.5672 42.7261 53.3047 44.9127 51.6171 46.7504C49.924 48.594 47.6427 49.9478 43.08 52.6552C38.4539 55.2529 36.1409 56.5517 33.6977 57.0962C31.2624 57.6389 28.7376 57.6389 26.3023 57.0962C23.8591 56.5517 21.5461 55.2529 16.92 52.6552C12.3573 49.9478 10.076 48.594 8.38287 46.7504C6.69525 44.9127 5.43282 42.7261 4.68517 40.3458C3.93509 37.9577 3.90339 35.3051 3.84 30C3.90339 24.6949 3.93509 22.0423 4.68517 19.6542C5.43282 17.2739 6.69525 15.0873 8.38287 13.2496C10.076 11.406 12.3573 10.0522 16.92 7.34478Z" fill="url(#paint1_linear_40_430)"/>
</mask>
<g mask="url(#mask0_40_430)">
<path d="M47.1428 19.5034L45.3277 25.8013V35.8037C45.3277 41.5458 41.2942 46.547 35.647 48.2141V50.4369C35.647 51.1778 35.042 51.7335 34.2352 51.7335H32.4201V59.1428H27.7815V51.7335H25.9664C25.1596 51.7335 24.5546 51.1778 24.5546 50.4369V48.2141C18.9076 46.547 14.8739 41.5458 14.8739 35.8037V25.8013L12.8571 19.5034L20.9243 27.6535L18.3025 27.2831V35.2481C18.3025 40.2493 22.336 44.5095 27.5797 45.0653V38.7674L24.3528 32.4695L27.5797 34.8775V27.6535L25.7646 23.949L29.9999 15.4285L34.2352 23.7638L32.4201 27.4683V34.6923L35.647 32.2843L32.4201 38.5822V44.8801C37.6638 44.1391 41.6973 40.0641 41.6973 35.0629V27.0979L39.0755 27.4683L47.1428 19.5034Z" fill="white"/>
</g>
<defs>
<linearGradient id="paint0_linear_40_430" x1="30" y1="0" x2="30" y2="60" gradientUnits="userSpaceOnUse">
<stop stop-color="#FF71E8"/>
<stop offset="1" stop-color="#C514A8"/>
</linearGradient>
<linearGradient id="paint1_linear_40_430" x1="30" y1="0" x2="30" y2="60" gradientUnits="userSpaceOnUse">
<stop stop-color="#FF71E8"/>
<stop offset="1" stop-color="#C514A8"/>
</linearGradient>
</defs>
</svg>
